<svg xmlns="http://www.w3.org/2000/svg" viewBox="35.4 99.5 665.2 536.7">
  <defs>
    <linearGradient id="og" gradientUnits="userSpaceOnUse" x1="48" y1="112" x2="688" y2="623">
      <stop offset="0" stop-color="#FFC24B"/>
      <stop offset=".45" stop-color="#FF8A1E"/>
      <stop offset="1" stop-color="#E23A05"/>
    </linearGradient>
  </defs>
  <path fill="url(#og)" fill-rule="evenodd" d="M364.33 623.44C363.69 623.16 362.64 622.70 362.00 622.42C360.04 621.57 359.06 621.06 353.67 618.04C337.45 608.98 319.75 593.36 309.42 579.00C303.93 571.36 298.39 560.85 295.55 552.67C294.90 550.79 293.33 545.36 293.33 544.97C293.33 544.64 294.85 543.64 297.83 542.01C298.93 541.41 300.06 540.75 300.33 540.54C300.61 540.33 301.13 540.01 301.50 539.81C302.20 539.43 309.80 534.86 311.16 534.00C311.60 533.73 313.05 532.84 314.39 532.02C315.74 531.21 318.33 529.58 320.17 528.40C322.00 527.22 324.40 525.68 325.50 524.98C332.70 520.39 343.99 512.18 352.56 505.28L358.30 500.65L367.06 500.57L375.81 500.49L379.49 503.50C390.28 512.33 399.96 519.34 412.58 527.45C413.91 528.30 416.01 529.65 417.25 530.45C421.29 533.05 439.66 544.00 439.99 544.00C440.16 544.00 440.47 544.31 440.67 544.68C440.96 545.22 440.79 546.12 439.84 549.10C438.67 552.73 436.93 557.49 436.35 558.61C436.20 558.92 435.08 561.19 433.86 563.67C432.65 566.14 431.51 568.39 431.34 568.67C431.16 568.94 430.20 570.53 429.21 572.20C420.32 587.16 405.11 602.29 387.46 613.74C380.76 618.09 375.74 620.88 370.54 623.15C368.30 624.12 366.11 624.23 364.33 623.44ZM184.50 557.01C179.28 556.71 170.79 555.86 168.00 555.36C166.99 555.18 164.59 554.79 162.67 554.49C160.74 554.20 158.19 553.75 157.00 553.50C148.73 551.76 145.44 551.02 143.67 550.51C142.84 550.27 141.19 549.82 140.00 549.50C133.77 547.83 118.66 542.65 113.83 540.53C113.28 540.29 112.46 539.93 112.00 539.73C111.54 539.53 110.19 538.93 109.00 538.39C107.81 537.85 106.01 537.06 105.00 536.64C97.56 533.51 79.69 523.59 71.17 517.85C66.09 514.43 60.02 509.88 60.01 509.48C60.00 508.94 65.05 504.16 68.83 501.12C75.46 495.81 82.58 490.97 92.26 485.22C95.24 483.45 97.75 482.00 97.83 482.00C97.91 482.00 98.71 481.56 99.61 481.03C100.51 480.50 102.13 479.57 103.21 478.97C105.52 477.68 120.87 470.00 121.14 470.00C121.24 470.00 122.41 469.49 123.74 468.88C125.79 467.92 133.64 464.65 135.83 463.83C139.64 462.41 143.08 461.23 144.22 460.96C145.84 460.57 145.89 460.60 150.56 463.76C153.93 466.04 157.74 468.46 159.62 469.51C160.73 470.12 163.34 471.60 166.83 473.59C169.86 475.30 185.13 482.71 189.00 484.33C191.29 485.29 193.62 486.27 194.17 486.50C202.90 490.18 215.04 494.34 226.17 497.48C227.83 497.94 234.70 499.62 238.50 500.49C243.10 501.53 244.05 501.73 245.73 502.00C248.65 502.46 253.37 503.24 255.50 503.61C264.29 505.15 273.34 505.71 292.92 505.90C309.62 506.06 318.54 505.83 323.08 505.11C324.02 504.96 324.33 505.03 324.33 505.37C324.33 505.81 321.78 507.66 305.33 519.12C288.60 530.78 283.55 533.91 272.09 539.66C269.52 540.95 267.32 542.00 267.20 542.00C267.08 542.00 266.05 542.43 264.91 542.96C260.21 545.15 255.43 546.98 249.50 548.87C247.48 549.51 245.23 550.24 244.50 550.48C242.71 551.07 237.20 552.49 233.00 553.45C228.00 554.59 220.66 555.77 214.01 556.51C208.40 557.13 191.59 557.41 184.50 557.01ZM526.83 557.13C514.60 556.16 507.60 555.04 494.67 551.99C490.69 551.06 481.38 548.07 476.33 546.11C468.98 543.25 455.33 536.72 451.29 534.12C450.49 533.61 449.31 532.90 448.67 532.55C448.03 532.21 446.85 531.49 446.07 530.96C445.28 530.43 444.56 530.00 444.48 530.00C444.32 530.00 434.54 523.42 431.33 521.17C430.32 520.45 426.05 517.45 421.83 514.50C410.25 506.38 409.55 505.86 409.70 505.50C409.86 505.10 409.89 505.10 417.67 505.65C422.06 505.95 428.78 506.03 441.00 505.91C458.82 505.74 465.69 505.35 475.50 503.95C478.07 503.59 481.07 503.17 482.17 503.02C483.27 502.88 485.07 502.58 486.17 502.36C487.27 502.14 489.37 501.73 490.83 501.44C494.14 500.79 503.21 498.71 504.33 498.35C504.79 498.20 506.14 497.82 507.33 497.50C509.75 496.86 515.29 495.24 517.83 494.43C520.70 493.51 530.17 490.22 532.00 489.50C532.64 489.25 534.22 488.64 535.50 488.15C537.65 487.33 542.11 485.52 544.50 484.49C545.05 484.26 546.97 483.37 548.77 482.53C550.57 481.69 552.11 481.00 552.19 481.00C552.69 481.00 567.07 473.62 569.83 471.94C570.38 471.61 571.06 471.24 571.33 471.11C573.22 470.26 583.88 463.61 586.33 461.75C588.31 460.24 588.48 460.27 598.50 464.05C608.27 467.73 622.27 474.39 634.67 481.25C635.86 481.91 637.36 482.74 638.00 483.09C644.04 486.43 655.87 494.10 661.16 498.11C666.84 502.42 673.67 508.61 673.67 509.46C673.67 509.97 672.32 511.07 667.67 514.36C662.13 518.27 655.89 522.32 652.83 523.99C651.73 524.59 650.61 525.26 650.33 525.47C650.06 525.68 649.23 526.17 648.50 526.57C647.77 526.96 646.19 527.82 645.00 528.48C641.68 530.32 631.15 535.60 628.95 536.52C627.88 536.97 626.22 537.70 625.25 538.14C619.93 540.56 616.46 541.95 610.00 544.23C604.08 546.33 602.07 547.00 601.70 547.00C601.52 547.00 600.95 547.18 600.44 547.39C599.21 547.90 597.19 548.51 593.42 549.49C591.72 549.93 590.20 550.38 590.02 550.48C589.85 550.59 589.06 550.81 588.27 550.97C587.48 551.14 585.41 551.60 583.67 552.00C575.38 553.92 564.78 555.63 555.67 556.52C550.77 557.00 530.53 557.43 526.83 557.13ZM279.50 489.98C260.56 489.45 244.59 487.23 232.67 483.47C226.63 481.57 221.06 479.68 218.00 478.51C217.36 478.27 215.56 477.59 214.00 477.01C212.44 476.43 210.64 475.76 210.00 475.51C207.73 474.65 201.14 471.89 199.08 470.95C197.94 470.43 196.89 470.00 196.76 470.00C196.51 470.00 180.22 461.90 179.33 461.33C178.31 460.68 173.61 458.00 173.49 458.00C173.42 458.00 172.70 457.55 171.89 457.00C171.07 456.45 170.32 456.00 170.22 456.00C170.03 456.00 169.75 455.82 163.33 451.55C158.14 448.09 158.36 448.24 153.83 444.87C138.31 433.30 120.37 415.74 109.18 401.17C104.43 394.99 97.78 384.92 93.99 378.17C93.58 377.43 92.26 375.11 91.06 373.00C89.87 370.89 86.92 365.27 84.52 360.50C80.56 352.65 79.18 349.78 76.78 344.42C76.35 343.45 75.64 341.88 75.21 340.92C74.22 338.74 70.27 329.35 68.94 326.00C68.39 324.62 67.75 323.05 67.51 322.50C66.80 320.84 64.71 315.43 63.27 311.51C62.73 310.04 61.90 307.78 61.43 306.50C58.48 298.47 52.18 279.78 50.99 275.50C50.84 274.95 50.16 272.62 49.48 270.33C48.80 268.04 48.22 265.72 48.20 265.17L48.17 264.17L52.83 263.92C59.24 263.59 69.46 263.93 75.67 264.68C83.85 265.66 88.60 266.31 90.10 266.64C90.87 266.81 92.66 267.18 94.08 267.47C104.00 269.47 109.20 270.80 120.17 274.18C135.04 278.77 151.66 286.19 161.73 292.74C164.53 294.57 164.83 295.05 165.15 298.17C165.35 300.18 165.65 302.03 166.52 306.67C167.40 311.40 168.03 314.50 168.50 316.50C171.13 327.50 173.13 335.08 173.68 336.08C173.86 336.40 174.00 336.86 174.00 337.11C174.00 338.31 179.69 354.42 182.09 360.00C184.95 366.66 188.99 375.07 191.70 380.00C195.41 386.75 202.85 398.59 207.11 404.50C210.82 409.66 215.29 415.67 215.66 416.00C215.76 416.09 216.66 417.22 217.65 418.50C230.18 434.71 246.09 450.82 260.33 461.72C264.17 464.66 274.16 471.50 276.50 472.80C277.05 473.10 278.03 473.66 278.67 474.04C286.01 478.39 295.34 482.83 302.00 485.16C305.66 486.44 310.76 487.94 312.22 488.17C313.63 488.39 314.99 489.12 314.64 489.47C314.41 489.70 295.51 490.35 291.17 490.27C289.52 490.24 284.27 490.11 279.50 489.98ZM430.02 489.96C425.53 489.81 421.64 489.60 421.37 489.50C420.53 489.17 421.99 488.42 424.30 488.01C426.60 487.59 434.44 485.04 437.29 483.79C438.28 483.35 439.21 483.00 439.37 483.00C439.92 483.00 449.58 478.34 453.50 476.19C458.85 473.24 469.12 466.68 472.17 464.26C472.35 464.11 473.95 462.91 475.72 461.58C494.56 447.43 514.82 425.19 532.26 399.50C535.81 394.28 541.55 384.98 544.30 380.00C547.36 374.44 552.02 364.67 553.82 360.00C554.50 358.26 555.35 356.09 555.73 355.19C557.58 350.70 561.65 338.55 563.33 332.50C563.74 331.03 564.27 329.16 564.51 328.33C564.91 326.98 566.27 321.42 567.48 316.17C568.78 310.54 570.21 302.70 571.20 295.78C571.30 295.10 571.72 294.45 572.43 293.92C577.24 290.29 592.77 282.45 601.67 279.15C602.31 278.91 603.66 278.39 604.67 278.00C607.18 277.02 618.68 273.24 621.33 272.51C622.52 272.19 623.88 271.80 624.33 271.64C626.73 270.84 635.22 268.78 640.17 267.81C641.45 267.56 643.62 267.12 645.00 266.83C647.84 266.24 649.48 266.01 658.83 264.86C666.38 263.94 676.57 263.55 683.33 263.92L687.83 264.17L687.79 265.17C687.73 266.76 685.82 273.04 680.81 288.17C679.10 293.30 677.17 299.00 676.50 300.83C675.84 302.67 675.06 304.84 674.78 305.67C674.49 306.49 673.74 308.52 673.11 310.17C672.48 311.82 671.76 313.69 671.52 314.33C671.27 314.97 670.82 316.18 670.50 317.00C670.18 317.82 669.70 319.10 669.42 319.83C669.15 320.57 668.79 321.47 668.64 321.83C668.48 322.20 667.31 325.05 666.04 328.17C663.44 334.55 662.29 337.21 659.35 343.67C658.22 346.14 656.99 348.88 656.61 349.75C654.75 354.00 646.72 369.57 643.50 375.17C636.67 387.03 631.03 395.45 623.52 405.03C613.30 418.06 596.68 434.08 582.33 444.73C566.05 456.80 550.09 465.62 528.17 474.64C525.13 475.89 511.21 481.00 510.84 481.00C510.68 481.00 509.34 481.43 507.86 481.96C493.91 486.95 478.35 489.31 455.00 490.00C442.95 490.35 441.64 490.35 430.02 489.96ZM357.83 486.16C347.20 484.46 338.41 480.38 330.24 473.34C323.21 467.28 318.51 461.49 312.60 451.59C307.27 442.68 304.18 435.46 300.69 423.83C299.58 420.15 298.28 413.58 297.45 407.50C296.64 401.53 296.64 384.29 297.46 377.50C298.47 369.11 300.16 359.60 301.50 354.83C301.76 353.92 302.21 352.12 302.52 350.83C302.82 349.55 303.26 347.90 303.50 347.17C303.74 346.43 304.20 344.93 304.51 343.83C305.94 338.87 309.61 328.50 311.86 323.08C315.67 313.91 321.77 301.35 325.88 294.23C326.50 293.17 327.00 292.22 327.00 292.12C327.00 291.63 336.50 276.29 340.40 270.50C348.82 257.98 354.47 250.49 364.00 239.18C365.51 237.39 366.61 236.33 366.97 236.33C367.35 236.33 367.41 236.39 371.88 241.67C379.69 250.88 387.66 261.59 395.05 272.83C399.50 279.61 400.97 281.93 402.66 284.85C403.60 286.49 404.52 288.06 404.68 288.33C407.77 293.42 413.99 305.29 417.24 312.33C422.71 324.16 427.74 337.57 430.48 347.67C432.10 353.64 432.91 356.91 433.51 359.83C433.81 361.30 434.20 363.18 434.39 364.00C436.16 371.80 437.44 387.28 437.12 397.00C436.76 408.10 434.63 420.34 431.49 429.33C431.27 429.97 430.90 431.10 430.67 431.83C428.75 437.96 422.87 449.54 417.89 457.00C412.03 465.76 403.99 474.01 397.16 478.24C393.54 480.49 387.59 483.36 385.17 484.03C380.92 485.21 378.38 485.77 375.50 486.18C371.39 486.75 361.49 486.75 357.83 486.16ZM271.11 446.89C270.59 446.47 269.04 445.35 267.65 444.40C266.27 443.45 264.85 442.41 264.49 442.08C264.13 441.74 263.01 440.83 262.00 440.04C258.22 437.07 254.50 433.63 247.61 426.66C234.59 413.51 225.24 401.29 214.37 383.23C213.06 381.07 212.00 379.24 212.00 379.17C212.00 379.09 211.53 378.24 210.96 377.26C207.86 372.04 198.41 352.00 196.99 347.67C196.84 347.21 196.40 346.01 196.00 345.00C194.05 339.98 190.84 330.68 189.46 326.00C189.16 324.99 188.65 323.34 188.33 322.33C187.82 320.72 187.34 318.99 185.49 312.17C185.25 311.25 184.81 309.45 184.52 308.17C184.23 306.88 183.69 304.48 183.32 302.83C182.15 297.67 182.06 297.24 181.50 294.17C181.20 292.52 180.75 290.19 180.51 289.00C180.26 287.81 179.81 285.03 179.51 282.83C179.20 280.63 178.75 277.48 178.49 275.83C177.98 272.44 177.27 265.57 176.45 256.00C175.64 246.57 175.63 220.74 176.43 211.50C178.03 193.16 179.92 181.29 183.00 170.17C183.41 168.70 183.86 167.05 183.99 166.50C184.13 165.95 184.48 164.92 184.78 164.21C185.21 163.20 185.45 162.98 185.91 163.17C186.24 163.30 187.17 163.67 188.00 163.99C196.63 167.28 215.86 176.33 224.35 181.10C226.45 182.27 228.77 183.58 229.50 183.99C237.21 188.32 247.18 194.87 254.83 200.61C275.00 215.76 297.69 240.70 315.79 267.61C317.55 270.24 319.00 272.44 319.00 272.49C319.00 272.54 318.12 274.14 317.04 276.04C315.97 277.94 314.47 280.62 313.70 282.00C312.10 284.89 303.00 303.14 303.00 303.46C303.00 303.57 302.62 304.46 302.15 305.42C298.84 312.20 292.92 327.19 289.87 336.50C288.13 341.81 286.57 347.02 285.57 350.83C284.20 356.08 283.98 357.00 283.53 359.33C280.22 376.36 279.30 390.02 280.50 404.23C281.12 411.53 282.42 420.10 283.66 425.00C284.49 428.28 285.48 431.75 286.20 433.89C287.11 436.59 287.12 436.67 286.68 436.67C286.35 436.67 286.25 436.51 284.10 432.46C278.52 421.94 276.04 416.84 271.35 406.17C268.12 398.82 262.57 383.62 260.51 376.50C260.19 375.40 259.80 374.12 259.63 373.67C259.32 372.79 258.42 369.47 256.48 362.00C255.30 357.44 254.55 354.19 254.00 351.17C252.65 343.84 252.26 341.66 251.69 338.00C249.89 326.64 248.59 314.63 247.98 303.83C247.80 300.53 247.50 295.88 247.32 293.50C247.15 291.12 247.00 285.12 247.00 280.17C246.99 275.22 246.86 270.97 246.71 270.72C246.02 269.63 242.89 285.65 241.51 297.33C241.22 299.81 240.76 303.56 240.50 305.67C239.03 317.24 238.98 327.86 240.34 342.33C240.52 344.26 240.81 347.71 240.99 350.00C241.71 359.06 243.46 372.59 244.51 377.17C246.59 386.26 247.09 388.35 247.49 389.67C247.75 390.49 248.19 391.99 248.49 393.00C249.74 397.28 252.84 406.39 253.65 408.17C253.82 408.53 254.48 410.18 255.12 411.83C257.63 418.34 259.88 423.30 264.03 431.50C267.40 438.17 267.59 438.53 270.70 443.86C271.78 445.71 272.67 447.33 272.67 447.45C272.67 447.88 272.04 447.65 271.11 446.89ZM463.33 447.07C463.33 446.93 463.54 446.52 463.79 446.16C464.05 445.80 465.07 444.07 466.07 442.33C472.71 430.73 478.06 419.43 482.49 407.67C482.73 407.03 483.18 405.82 483.50 405.00C484.80 401.60 485.27 400.16 488.51 389.67C488.91 388.36 489.64 385.30 491.49 377.17C492.57 372.40 494.16 360.06 494.99 350.00C496.90 326.78 497.02 322.77 496.16 312.15C495.88 308.72 495.59 305.81 495.51 305.68C495.42 305.54 495.20 303.72 495.00 301.63C494.81 299.54 494.51 296.93 494.33 295.83C494.16 294.73 493.79 292.26 493.50 290.33C492.57 284.07 491.81 279.99 490.46 274.00C490.20 272.81 489.90 271.47 489.80 271.02C489.66 270.37 489.56 270.30 489.32 270.68C489.15 270.95 489.01 274.84 489.01 279.33C489.01 292.43 487.49 314.33 485.66 327.67C484.68 334.85 483.63 341.81 483.16 344.33C482.86 345.89 482.42 348.29 482.17 349.67C481.93 351.04 481.51 353.14 481.23 354.33C480.96 355.53 480.34 358.30 479.85 360.50C479.36 362.70 478.76 365.18 478.52 366.00C478.28 366.82 477.82 368.47 477.51 369.67C477.19 370.86 476.74 372.43 476.51 373.17C476.27 373.90 475.81 375.40 475.49 376.50C474.52 379.81 470.79 390.72 469.50 394.00C469.24 394.64 468.51 396.52 467.87 398.17C466.32 402.13 463.05 409.84 461.51 413.17C457.95 420.81 451.26 433.93 450.09 435.53C449.16 436.80 448.76 436.34 449.42 434.75C449.70 434.06 450.19 432.60 450.50 431.50C450.80 430.40 451.21 429.05 451.40 428.50C451.81 427.30 452.01 426.41 453.10 421.00C454.38 414.63 454.93 410.75 455.53 403.83C456.37 394.17 455.84 379.09 454.32 369.77C453.25 363.19 450.70 351.63 449.33 347.17C449.16 346.62 448.77 345.27 448.47 344.17C446.89 338.50 441.96 324.52 439.12 317.71C438.47 316.13 437.63 314.08 437.26 313.17C436.89 312.25 436.01 310.25 435.30 308.73C434.58 307.21 434.00 305.90 434.00 305.82C434.00 305.04 424.30 285.66 420.43 278.70C418.54 275.31 417.00 272.49 417.00 272.43C417.00 272.25 422.21 264.49 424.44 261.33C439.54 240.01 458.33 219.26 475.33 205.14C479.61 201.58 487.93 195.51 493.17 192.12C497.67 189.20 507.89 183.00 508.20 183.00C508.28 183.00 508.91 182.65 509.59 182.23C512.70 180.29 525.12 173.98 531.67 171.01C533.77 170.06 536.59 168.76 537.93 168.14C539.27 167.51 540.48 167.00 540.62 167.00C540.77 167.00 542.30 166.39 544.03 165.64C545.75 164.89 547.69 164.08 548.33 163.85C548.98 163.61 549.76 163.31 550.09 163.18C550.55 162.98 550.79 163.20 551.22 164.21C551.52 164.92 551.89 166.03 552.04 166.67C552.19 167.31 552.77 169.56 553.34 171.67C556.29 182.68 558.01 193.75 559.54 211.67C560.33 220.93 560.34 246.84 559.55 256.17C558.84 264.54 558.11 271.54 557.48 275.83C557.21 277.67 556.77 280.67 556.50 282.50C556.24 284.33 555.95 286.28 555.87 286.83C555.62 288.48 553.75 298.00 553.19 300.50C552.54 303.37 552.33 304.26 550.83 310.33C549.69 315.00 549.32 316.40 548.21 320.33C547.92 321.34 547.38 323.26 547.01 324.59C545.77 328.99 542.33 339.02 540.00 345.00C539.60 346.01 539.16 347.21 539.01 347.67C538.74 348.51 535.07 357.09 533.67 360.17C529.92 368.42 522.61 381.98 518.40 388.50C509.33 402.53 502.35 411.69 492.89 421.96C485.03 430.50 477.02 437.79 468.54 444.12C464.62 447.06 463.33 447.78 463.33 447.07ZM323.50 252.89C320.53 248.38 315.06 241.23 310.70 236.18C308.22 233.30 306.21 231.09 298.73 223.00C297.97 222.17 297.34 221.25 297.34 220.95C297.33 220.40 302.39 208.40 304.83 203.17C306.79 198.96 314.20 184.06 315.53 181.67C316.19 180.47 317.26 178.53 317.91 177.33C325.86 162.74 336.03 147.84 348.18 133.00C351.62 128.80 358.57 120.70 359.35 120.00C359.45 119.91 361.07 118.15 362.96 116.08C364.84 114.02 366.64 112.33 366.95 112.33C367.68 112.33 379.73 125.62 384.68 131.87C385.13 132.44 386.96 134.73 388.75 136.95C398.44 149.00 407.73 162.70 415.01 175.67C415.99 177.41 417.25 179.66 417.82 180.67C420.62 185.65 428.05 201.04 431.81 209.67C433.05 212.51 434.27 215.28 434.52 215.83C436.16 219.43 436.71 221.73 436.02 222.15C435.85 222.26 433.87 224.33 431.63 226.76C429.39 229.18 426.85 231.92 426.00 232.83C421.71 237.46 414.43 246.81 409.85 253.58C408.58 255.46 407.37 257.00 407.17 257.00C406.96 257.00 404.94 254.20 402.68 250.78C394.83 238.91 389.63 231.96 379.83 220.25C378.00 218.05 376.12 215.77 375.67 215.18C374.00 213.02 367.20 205.33 366.96 205.33C366.69 205.33 361.69 210.96 356.31 217.33C346.35 229.12 339.30 238.48 330.79 251.25C328.68 254.41 326.78 256.99 326.56 256.97C326.34 256.96 324.97 255.12 323.50 252.89Z"/>
</svg>
